<svg width="800" height="800" viewBox="0 0 800 800" fill="none" xmlns="http://www.w3.org/2000/svg">
<rect width="800" height="800" fill="black"/>
<rect x="57.5" y="57.5" width="685" height="685" rx="22.5" stroke="white" stroke-width="15"/>
<path d="M425 524.4C425 552.025 397 574.4 362.5 574.4C328 574.4 300 552.025 300 524.4C300 496.775 328 474.4 362.5 474.4C397 474.4 425 496.775 425 524.4Z" fill="white"/>
<path fill-rule="evenodd" clip-rule="evenodd" d="M425 275V525H400V275H425Z" fill="white"/>
<path d="M400 270.5C400.003 264.723 402.008 259.125 405.672 254.658C409.337 250.192 414.435 247.132 420.1 246L495.1 231C498.726 230.275 502.467 230.364 506.054 231.259C509.641 232.155 512.985 233.834 515.845 236.178C518.705 238.521 521.009 241.47 522.592 244.811C524.175 248.152 524.998 251.803 525 255.5V300L400 325V270.5Z" fill="white"/>
</svg>
