<svg width="800" height="800" viewBox="0 0 800 800" fill="none" xmlns="http://www.w3.org/2000/svg">
<rect width="800" height="800" fill="black"/>
<rect x="57.5" y="57.5" width="685" height="685" rx="22.5" stroke="white" stroke-width="15"/>
<path d="M462.5 400C462.5 416.576 455.915 432.473 444.194 444.194C432.473 455.915 416.576 462.5 400 462.5C383.424 462.5 367.527 455.915 355.806 444.194C344.085 432.473 337.5 416.576 337.5 400C337.5 383.424 344.085 367.527 355.806 355.806C367.527 344.085 383.424 337.5 400 337.5C416.576 337.5 432.473 344.085 444.194 355.806C455.915 367.527 462.5 383.424 462.5 400Z" fill="white"/>
<path d="M200 400C200 400 275 262.5 400 262.5C525 262.5 600 400 600 400C600 400 525 537.5 400 537.5C275 537.5 200 400 200 400ZM400 487.5C423.206 487.5 445.462 478.281 461.872 461.872C478.281 445.462 487.5 423.206 487.5 400C487.5 376.794 478.281 354.538 461.872 338.128C445.462 321.719 423.206 312.5 400 312.5C376.794 312.5 354.538 321.719 338.128 338.128C321.719 354.538 312.5 376.794 312.5 400C312.5 423.206 321.719 445.462 338.128 461.872C354.538 478.281 376.794 487.5 400 487.5Z" fill="white"/>
</svg>
