<svg width="800" height="800" viewBox="0 0 800 800" fill="none" xmlns="http://www.w3.org/2000/svg">
<rect width="800" height="800" fill="black"/>
<path d="M290.308 490C274.144 489.997 258.277 485.648 244.363 477.407C230.448 469.166 218.995 457.335 211.2 443.148C203.404 428.961 199.551 412.938 200.042 396.75C200.533 380.563 205.35 364.804 213.992 351.118C222.633 337.432 234.782 326.319 249.17 318.94C263.559 311.561 279.66 308.186 295.794 309.166C311.929 310.146 327.505 315.446 340.898 324.513C354.291 333.58 365.01 346.082 371.938 360.714H561.289L600 399.5L561.289 438.286L535.481 412.429L509.673 438.286L483.866 412.429L458.058 438.286L432.25 412.429L406.443 438.286H371.938C364.611 453.762 353.051 466.837 338.601 475.991C324.151 485.146 307.404 490.004 290.308 490ZM264.501 425.357C271.345 425.357 277.909 422.633 282.749 417.784C287.589 412.935 290.308 406.358 290.308 399.5C290.308 392.642 287.589 386.065 282.749 381.216C277.909 376.367 271.345 373.643 264.501 373.643C257.656 373.643 251.092 376.367 246.252 381.216C241.412 386.065 238.693 392.642 238.693 399.5C238.693 406.358 241.412 412.935 246.252 417.784C251.092 422.633 257.656 425.357 264.501 425.357Z" fill="white"/>
</svg>
